<svg width="150" height="100" viewBox="0 0 150 100" fill="none" xmlns="http://www.w3.org/2000/svg">
<g id="Vector" opacity="0.4">
<path d="M10 59C10 61.7614 7.76142 64 5 64C2.23858 64 0 61.7614 0 59C0 56.2386 2.23858 54 5 54C7.76142 54 10 56.2386 10 59Z" fill="white"/>
<path d="M100 59C100 61.7614 97.7614 64 95 64C92.2386 64 90 61.7614 90 59C90 56.2386 92.2386 54 95 54C97.7614 54 100 56.2386 100 59Z" fill="white"/>
<path d="M46 59C46 61.7614 43.7614 64 41 64C38.2386 64 36 61.7614 36 59C36 56.2386 38.2386 54 41 54C43.7614 54 46 56.2386 46 59Z" fill="white"/>
<path d="M28 59C28 61.7614 25.7614 64 23 64C20.2386 64 18 61.7614 18 59C18 56.2386 20.2386 54 23 54C25.7614 54 28 56.2386 28 59Z" fill="white"/>
<path d="M64 59C64 61.7614 61.7614 64 59 64C56.2386 64 54 61.7614 54 59C54 56.2386 56.2386 54 59 54C61.7614 54 64 56.2386 64 59Z" fill="white"/>
<path d="M82 59C82 61.7614 79.7614 64 77 64C74.2386 64 72 61.7614 72 59C72 56.2386 74.2386 54 77 54C79.7614 54 82 56.2386 82 59Z" fill="white"/>
<path d="M20 95C20 97.7614 17.7614 100 15 100C12.2386 100 10 97.7614 10 95C10 92.2386 12.2386 90 15 90C17.7614 90 20 92.2386 20 95Z" fill="white"/>
<path d="M110 95C110 97.7614 107.761 100 105 100C102.239 100 100 97.7614 100 95C100 92.2386 102.239 90 105 90C107.761 90 110 92.2386 110 95Z" fill="white"/>
<path d="M56 95C56 97.7614 53.7614 100 51 100C48.2386 100 46 97.7614 46 95C46 92.2386 48.2386 90 51 90C53.7614 90 56 92.2386 56 95Z" fill="white"/>
<path d="M38 95C38 97.7614 35.7614 100 33 100C30.2386 100 28 97.7614 28 95C28 92.2386 30.2386 90 33 90C35.7614 90 38 92.2386 38 95Z" fill="white"/>
<path d="M74 95C74 97.7614 71.7614 100 69 100C66.2386 100 64 97.7614 64 95C64 92.2386 66.2386 90 69 90C71.7614 90 74 92.2386 74 95Z" fill="white"/>
<path d="M92 95C92 97.7614 89.7614 100 87 100C84.2386 100 82 97.7614 82 95C82 92.2386 84.2386 90 87 90C89.7614 90 92 92.2386 92 95Z" fill="white"/>
<path d="M30 77C30 79.7614 27.7614 82 25 82C22.2386 82 20 79.7614 20 77C20 74.2386 22.2386 72 25 72C27.7614 72 30 74.2386 30 77Z" fill="white"/>
<path d="M120 77C120 79.7614 117.761 82 115 82C112.239 82 110 79.7614 110 77C110 74.2386 112.239 72 115 72C117.761 72 120 74.2386 120 77Z" fill="white"/>
<path d="M66 77C66 79.7614 63.7614 82 61 82C58.2386 82 56 79.7614 56 77C56 74.2386 58.2386 72 61 72C63.7614 72 66 74.2386 66 77Z" fill="white"/>
<path d="M48 77C48 79.7614 45.7614 82 43 82C40.2386 82 38 79.7614 38 77C38 74.2386 40.2386 72 43 72C45.7614 72 48 74.2386 48 77Z" fill="white"/>
<path d="M84 77C84 79.7614 81.7614 82 79 82C76.2386 82 74 79.7614 74 77C74 74.2386 76.2386 72 79 72C81.7614 72 84 74.2386 84 77Z" fill="white"/>
<path d="M102 77C102 79.7614 99.7614 82 97 82C94.2386 82 92 79.7614 92 77C92 74.2386 94.2386 72 97 72C99.7614 72 102 74.2386 102 77Z" fill="white"/>
<path d="M60 5C60 7.76142 57.7614 10 55 10C52.2386 10 50 7.76142 50 5C50 2.23858 52.2386 0 55 0C57.7614 0 60 2.23858 60 5Z" fill="white"/>
<path d="M150 5C150 7.76142 147.761 10 145 10C142.239 10 140 7.76142 140 5C140 2.23858 142.239 0 145 0C147.761 0 150 2.23858 150 5Z" fill="white"/>
<path d="M96 5C96 7.76142 93.7614 10 91 10C88.2386 10 86 7.76142 86 5C86 2.23858 88.2386 0 91 0C93.7614 0 96 2.23858 96 5Z" fill="white"/>
<path d="M78 5C78 7.76142 75.7614 10 73 10C70.2386 10 68 7.76142 68 5C68 2.23858 70.2386 0 73 0C75.7614 0 78 2.23858 78 5Z" fill="white"/>
<path d="M114 5C114 7.76142 111.761 10 109 10C106.239 10 104 7.76142 104 5C104 2.23858 106.239 0 109 0C111.761 0 114 2.23858 114 5Z" fill="white"/>
<path d="M132 5C132 7.76142 129.761 10 127 10C124.239 10 122 7.76142 122 5C122 2.23858 124.239 0 127 0C129.761 0 132 2.23858 132 5Z" fill="white"/>
<path d="M40 41C40 43.7614 37.7614 46 35 46C32.2386 46 30 43.7614 30 41C30 38.2386 32.2386 36 35 36C37.7614 36 40 38.2386 40 41Z" fill="white"/>
<path d="M130 41C130 43.7614 127.761 46 125 46C122.239 46 120 43.7614 120 41C120 38.2386 122.239 36 125 36C127.761 36 130 38.2386 130 41Z" fill="white"/>
<path d="M76 41C76 43.7614 73.7614 46 71 46C68.2386 46 66 43.7614 66 41C66 38.2386 68.2386 36 71 36C73.7614 36 76 38.2386 76 41Z" fill="white"/>
<path d="M58 41C58 43.7614 55.7614 46 53 46C50.2386 46 48 43.7614 48 41C48 38.2386 50.2386 36 53 36C55.7614 36 58 38.2386 58 41Z" fill="white"/>
<path d="M94 41C94 43.7614 91.7614 46 89 46C86.2386 46 84 43.7614 84 41C84 38.2386 86.2386 36 89 36C91.7614 36 94 38.2386 94 41Z" fill="white"/>
<path d="M112 41C112 43.7614 109.761 46 107 46C104.239 46 102 43.7614 102 41C102 38.2386 104.239 36 107 36C109.761 36 112 38.2386 112 41Z" fill="white"/>
<path d="M50 23C50 25.7614 47.7614 28 45 28C42.2386 28 40 25.7614 40 23C40 20.2386 42.2386 18 45 18C47.7614 18 50 20.2386 50 23Z" fill="white"/>
<path d="M140 23C140 25.7614 137.761 28 135 28C132.239 28 130 25.7614 130 23C130 20.2386 132.239 18 135 18C137.761 18 140 20.2386 140 23Z" fill="white"/>
<path d="M86 23C86 25.7614 83.7614 28 81 28C78.2386 28 76 25.7614 76 23C76 20.2386 78.2386 18 81 18C83.7614 18 86 20.2386 86 23Z" fill="white"/>
<path d="M68 23C68 25.7614 65.7614 28 63 28C60.2386 28 58 25.7614 58 23C58 20.2386 60.2386 18 63 18C65.7614 18 68 20.2386 68 23Z" fill="white"/>
<path d="M104 23C104 25.7614 101.761 28 99 28C96.2386 28 94 25.7614 94 23C94 20.2386 96.2386 18 99 18C101.761 18 104 20.2386 104 23Z" fill="white"/>
<path d="M122 23C122 25.7614 119.761 28 117 28C114.239 28 112 25.7614 112 23C112 20.2386 114.239 18 117 18C119.761 18 122 20.2386 122 23Z" fill="white"/>
</g>
</svg>
